HIERARCHY
ROOT Hips
{
	OFFSET 0.000000 0.000000 0.000000
	CHANNELS 6 Xposition Yposition Zposition Zrotation Yrotation Xrotation 
	JOINT LHipJoint
	{
		OFFSET 0.000000 0.000000 0.000000
		CHANNELS 3 Zrotation Yrotation Xrotation
		JOINT LeftUpLeg
		{
			OFFSET 1.363060 -1.794630 0.839290
			CHANNELS 3 Zrotation Yrotation Xrotation
			JOINT LeftLeg
			{
				OFFSET 2.448110 -6.726130 0.000000
				CHANNELS 3 Zrotation Yrotation Xrotation
				JOINT LeftFoot
				{
					OFFSET 2.562200 -7.039590 0.000000
					CHANNELS 3 Zrotation Yrotation Xrotation
					JOINT LeftToeBase
					{
						OFFSET 0.157640 -0.433110 2.322550
						CHANNELS 3 Zrotation Yrotation Xrotation
						End Site
						{
							OFFSET 0.000000 0.000000 0.000000
						}
					}
				}
			}
		}
	}
	JOINT RHipJoint
	{
		OFFSET 0.000000 0.000000 0.000000
		CHANNELS 3 Zrotation Yrotation Xrotation
		JOINT RightUpLeg
		{
			OFFSET -1.305520 -1.794630 0.839290
			CHANNELS 3 Zrotation Yrotation Xrotation
			JOINT RightLeg
			{
				OFFSET -2.542530 -6.985550 0.000000
				CHANNELS 3 Zrotation Yrotation Xrotation
				JOINT RightFoot
				{
					OFFSET -2.568260 -7.056230 0.000000
					CHANNELS 3 Zrotation Yrotation Xrotation
					JOINT RightToeBase
					{
						OFFSET -0.164730 -0.452590 2.363150
						CHANNELS 3 Zrotation Yrotation Xrotation
						End Site
						{
							OFFSET 0.000000 0.000000 0.000000
						}
					}
				}
			}
		}
	}
}
MOTION
Frames: 19
Frame Time: 0.008333
2.915998 16.754676 5.009681 7.083702 7.264966 29.319047 -5.848679 2.230920 5.997756 -6.796861 -8.842702 -41.114855 -3.451500 -1.181269 13.483145 0.851375 3.036934 -6.714689 0.272600 -0.000001 -39.628600 13.558042 -3.418533 4.893169 11.463237 10.250332 -6.334645 -0.029986 -1.227245 18.783244 0.466531 19.881737 30.530063 11.930500 -0.000001 -30.272100
2.986234 16.662249 5.148002 7.378198 6.728379 29.293413 -5.746450 2.262429 6.275255 -6.326656 -11.093543 -42.002855 -3.109978 -0.898560 16.869238 1.205358 4.498050 -8.133520 0.174800 -0.000000 -38.022600 13.661971 -3.326119 4.771839 11.163685 10.234106 -6.800596 -0.283150 -1.315522 21.495398 0.311349 19.683562 31.264336 12.087000 -0.000001 -34.556900
3.056759 16.571116 5.284544 7.715646 6.172470 29.168051 -5.658172 2.275028 6.486657 -6.049284 -13.194624 -42.762422 -2.769737 -0.600413 20.497762 1.561277 5.930262 -9.596496 0.003700 0.000000 -36.346300 13.770832 -3.219681 4.608001 10.814660 10.032747 -7.353111 -0.524303 -1.399334 24.452858 0.153075 19.215880 31.770203 12.010500 -0.000000 -38.564500
3.126295 16.484110 5.420084 8.075472 5.571317 28.945553 -5.590393 2.271827 6.621171 -6.026476 -15.009001 -43.299492 -2.462091 -0.312332 24.096503 1.897781 7.277063 -11.036804 -0.231600 0.000000 -34.794999 13.883171 -3.106385 4.416437 10.416043 9.680706 -7.992400 -0.747148 -1.482093 27.601406 -0.006402 18.418340 32.015099 11.654800 -0.000000 -42.182600
3.193310 16.404168 5.555570 8.439647 4.912930 28.647947 -5.545952 2.261552 6.680732 -6.279988 -16.443161 -43.556977 -2.210433 -0.054371 27.416558 2.202502 8.502674 -12.417501 -0.517099 -0.000000 -33.544799 13.998145 -2.992295 4.214596 9.972597 9.221407 -8.740192 -0.949049 -1.567285 30.883343 -0.167274 17.250383 31.989092 10.998999 0.000000 -45.462700
3.256415 16.333990 5.691845 8.791900 4.195399 28.306952 -5.525013 2.254585 6.674866 -6.793468 -17.442250 -43.522105 -2.027250 0.161098 30.273407 2.470620 9.580319 -13.730642 -0.839300 -0.000001 -32.702900 14.113814 -2.882260 4.019166 9.495627 8.694567 -9.630457 -1.129469 -1.658091 34.247284 -0.329246 15.698511 31.667042 10.043300 -0.000001 -48.364000
3.314543 16.275769 5.829537 9.118066 3.421864 27.952784 -5.526527 2.259419 6.614697 -7.521594 -17.982359 -43.213446 -1.915872 0.327944 32.554199 2.700822 10.484211 -14.983026 -1.185500 0.000000 -32.295500 14.226511 -2.779559 3.843303 9.003716 8.132028 -10.693161 -1.289732 -1.757143 37.646367 -0.491885 13.779938 31.020513 8.815900 0.000000 -50.803800
3.367138 16.230991 5.968982 9.406569 2.598600 27.606342 -5.548602 2.281474 6.509302 -8.405210 -18.065332 -42.660556 -1.874103 0.443894 34.205059 2.891891 11.188045 -16.179257 -1.541600 -0.000000 -32.282000 14.331894 -2.685860 3.694411 8.519064 7.554905 -11.941632 -1.432097 -1.866653 41.035826 -0.654349 11.544014 30.021000 7.373600 0.000001 -52.664300
3.414292 16.200420 6.110209 9.642892 1.734312 27.278008 -5.592388 2.322358 6.364704 -9.373878 -17.707012 -41.898842 -1.896455 0.509750 35.221953 3.039381 11.658554 -17.312133 -1.889300 -0.000000 -32.571099 14.422039 -2.602197 3.575297 8.075625 6.981028 -13.368275 -1.558957 -1.988038 44.369759 -0.815440 9.063115 28.648993 5.794900 0.000000 -53.807900
3.456586 16.184110 6.253054 9.814944 0.840260 26.966814 -5.659709 2.381029 6.184381 -10.361074 -16.940736 -40.954842 -1.975641 0.528118 35.633539 3.136628 11.866201 -18.356305 -2.204000 0.000000 -33.053700 14.488962 -2.528859 3.483003 7.707494 6.420619 -14.943662 -1.672296 -2.121887 47.602283 -0.973939 6.429576 26.898336 4.174300 0.000000 -54.105600
3.495214 16.181488 6.397307 9.908408 -0.068902 26.666141 -5.755891 2.453308 5.970556 -11.298376 -15.809760 -39.853711 -2.101928 0.503670 35.497903 3.174966 11.786483 -19.270113 -2.456400 0.000000 -33.632800 14.522303 -2.466185 3.411069 7.454507 5.883291 -16.624416 -1.773117 -2.267369 50.688830 -1.128604 3.744019 24.779878 2.610000 -0.000000 -53.416900
3.530797 16.191376 6.542633 9.937499 -0.981796 26.360951 -5.874969 2.536591 5.729410 -12.155874 -14.402454 -38.592116 -2.264627 0.440207 34.869879 3.152158 11.438249 -19.994358 -2.620700 -0.000001 -34.227900 14.524124 -2.411171 3.347370 7.311541 5.360568 -18.356722 -1.861732 -2.423135 53.589700 -1.278754 1.114951 22.319927 1.197800 -0.000000 -51.781600
3.565445 16.212409 6.688869 9.883259 -1.878013 26.047176 -6.028122 2.621687 5.467018 -12.863276 -12.785896 -37.205266 -2.447191 0.346404 33.852418 3.063752 10.833313 -20.478998 -2.676800 0.000000 -34.820200 14.480767 -2.364213 3.284075 7.321431 4.868527 -20.095313 -1.936692 -2.585156 56.272357 -1.423193 -1.371691 19.564992 0.007900 0.000000 -49.088500
3.600376 16.242883 6.836005 9.756011 -2.741605 25.725128 -6.213898 2.702507 5.197926 -13.390377 -11.074791 -35.715538 -2.632136 0.229924 32.537495 2.916985 10.037092 -20.678502 -2.622100 0.000000 -35.410200 14.392267 -2.321871 3.213100 7.477056 4.410350 -21.808912 -1.996297 -2.749073 58.716356 -1.561030 -3.638602 16.570974 -0.909600 -0.000000 -45.389500
3.636306 16.281163 6.983684 9.573879 -3.558925 25.384298 -6.427248 2.774322 4.933306 -13.728768 -9.386240 -34.120561 -2.802478 0.099143 31.010584 2.725724 9.138602 -20.570945 -2.472700 -0.000000 -36.007501 14.263324 -2.279579 3.124143 7.754142 3.985204 -23.455398 -2.038222 -2.911092 60.902501 -1.692305 -5.635340 13.417298 -1.535300 0.000001 -40.975900
3.674076 16.325637 7.132382 9.347750 -4.314429 25.048230 -6.666340 2.832636 4.694418 -13.866324 -7.843285 -32.472452 -2.940517 -0.036355 29.371676 2.509197 8.236691 -20.158696 -2.256500 0.000000 -36.635500 14.095386 -2.232852 3.019699 8.134393 3.610625 -25.048362 -2.060926 -3.066072 62.832289 -1.815780 -7.331862 10.174528 -1.876700 -0.000001 -35.904500
3.713655 16.374949 7.282164 9.097683 -4.998636 24.724027 -6.923172 2.876855 4.493431 -13.823905 -6.545270 -30.791542 -3.034619 -0.167983 27.698748 2.288301 7.427499 -19.469557 -2.007100 0.000000 -37.305100 13.896214 -2.176773 2.901374 8.580332 3.298834 -26.586993 -2.063577 -3.210631 64.504600 -1.931292 -8.722741 6.928282 -1.966000 -0.000000 -30.496400
3.754592 16.427994 7.433264 8.841201 -5.606861 24.422836 -7.189303 2.908571 4.337965 -13.635485 -5.556521 -29.106323 -3.078970 -0.288257 26.058267 2.081166 6.785294 -18.546357 -1.753101 0.000000 -38.031500 13.673701 -2.107506 2.776159 9.053054 3.067201 -28.083797 -2.046640 -3.342144 65.923806 -2.038217 -9.818203 3.758267 -1.851000 -0.000000 -25.039900
3.796057 16.483930 7.585874 8.592946 -6.140678 24.151410 -7.455558 2.931354 4.228173 -13.346642 -4.894150 -27.444246 -3.074463 -0.391512 24.501389 1.900232 6.352214 -17.438683 -1.511900 0.000000 -38.837700 13.436431 -2.022902 2.654466 9.512826 2.934520 -29.552420 -2.011630 -3.459110 67.095662 -2.135095 -10.636443 0.733295 -1.586400 -0.000000 -19.799400
